<svg xmlns="http://www.w3.org/2000/svg" viewBox="0 0 60 60"><defs><style>.a{fill:#fff;}.b{fill:none;}.c{fill:#0096db;}</style></defs><g transform="translate(-620 -462)"><circle class="a" cx="30" cy="30" r="30" transform="translate(620 462)"/><g transform="translate(630 472)"><path class="b" d="M0,0H40V40H0Z"/><path class="c" d="M31.833,10.667H27.667V7.333A3.343,3.343,0,0,0,24.333,4h-20A3.343,3.343,0,0,0,1,7.333v15a3.343,3.343,0,0,0,3.333,3.333,5,5,0,1,0,10,0h10a5,5,0,1,0,10,0H36A1.672,1.672,0,0,0,37.667,24V18.45a3.353,3.353,0,0,0-.667-2l-3.833-5.117a1.69,1.69,0,0,0-1.333-.667ZM9.333,27.333A1.667,1.667,0,1,1,11,25.667,1.672,1.672,0,0,1,9.333,27.333Zm22.5-14.167L35.1,17.333H27.667V13.167Zm-2.5,14.167A1.667,1.667,0,1,1,31,25.667,1.672,1.672,0,0,1,29.333,27.333Z" transform="translate(0.667 2.667)"/></g></g></svg>