<svg xmlns="http://www.w3.org/2000/svg" viewBox="0 0 60 60"><defs><style>.a{fill:#fff;}.b{fill:none;}.c{fill:#0096db;}</style></defs><g transform="translate(-540 -462)"><circle class="a" cx="30" cy="30" r="30" transform="translate(540 462)"/><g transform="translate(550 472)"><path class="b" d="M0,0H40V40H0Z"/><path class="c" d="M23.667,24h5a1.672,1.672,0,0,0,1.667-1.667v-10a1.672,1.672,0,0,0-1.667-1.667h-5A1.672,1.672,0,0,0,22,12.333v10A1.672,1.672,0,0,0,23.667,24Zm1.667-10H27v6.667H25.333ZM13.667,24h5a1.672,1.672,0,0,0,1.667-1.667v-10a1.672,1.672,0,0,0-1.667-1.667h-5A1.672,1.672,0,0,0,12,12.333v10A1.672,1.672,0,0,0,13.667,24Zm1.667-10H17v6.667H15.333ZM8.667,10.667A1.672,1.672,0,0,0,7,12.333v10a1.667,1.667,0,1,0,3.333,0v-10A1.672,1.672,0,0,0,8.667,10.667ZM2,7.333v20a3.343,3.343,0,0,0,3.333,3.333H32a3.343,3.343,0,0,0,3.333-3.333v-20A3.343,3.343,0,0,0,32,4H5.333A3.343,3.343,0,0,0,2,7.333Zm28.333,20H7a1.672,1.672,0,0,1-1.667-1.667V9A1.672,1.672,0,0,1,7,7.333H30.333A1.672,1.672,0,0,1,32,9V25.667A1.672,1.672,0,0,1,30.333,27.333Z" transform="translate(1.333 2.667)"/></g></g></svg>