<svg xmlns="http://www.w3.org/2000/svg" viewBox="0 0 60 60"><defs><style>.a{fill:#fff;}.b{fill:none;}.c{fill:#0096db;}</style></defs><g transform="translate(-460 -462)"><circle class="a" cx="30" cy="30" r="30" transform="translate(460 462)"/><g transform="translate(470 472)"><path class="b" d="M0,0H40V40H0Z"/><path class="c" d="M13.73,3.72,7.53,13.853a1.663,1.663,0,0,0,1.417,2.533H21.33a1.663,1.663,0,0,0,1.417-2.533L16.563,3.72a1.654,1.654,0,0,0-2.833,0Z" transform="translate(4.853 1.947)"/><circle class="c" cx="7.5" cy="7.5" r="7.5" transform="translate(21.667 21.667)"/><path class="c" d="M4.667,26.833h10a1.672,1.672,0,0,0,1.667-1.667v-10A1.672,1.672,0,0,0,14.667,13.5h-10A1.672,1.672,0,0,0,3,15.167v10A1.672,1.672,0,0,0,4.667,26.833Z" transform="translate(2 9)"/></g></g></svg>